<svg width="80" height="71" viewBox="0 0 80 71" fill="none" xmlns="http://www.w3.org/2000/svg">
<g filter="url(#filter0_d_2_474)">
<rect x="15" y="1.5" width="50" height="50" rx="20" fill="white"/>
<rect x="15.5" y="2" width="49" height="49" rx="19.5" stroke="#E6FCFF"/>
<g clip-path="url(#clip0_2_474)">
<path d="M56.2795 24.1811C50.2124 24.7757 46.1877 29.5919 41.5622 32.9216C39.3396 34.527 36.2159 36.4297 33.2725 35.9541C31.7707 35.7162 31.0498 34.5865 30.6294 33.2784C32.1311 32.2676 33.2124 30.7811 33.3926 28.8784C33.5127 27.273 32.3113 24.6568 30.2689 25.6676C29.488 26.0243 29.1276 26.9162 28.9474 27.6892C28.7071 28.9378 28.647 30.2459 28.8272 31.4946C28.8272 31.8514 28.8873 32.2081 28.9474 32.5649C27.4456 33.3973 25.5834 33.6946 23.9014 33.3378C22.9403 33.1595 22.5799 34.5865 23.4809 34.7649C25.2831 35.1811 27.4456 34.8838 29.2477 34.0514C29.6082 35.1811 30.2689 36.2514 31.3502 36.8459C33.0923 37.8568 35.2548 37.5595 37.0569 36.9649C40.4809 35.8351 43.2442 33.5162 45.9474 31.2568C48.8908 28.8189 52.1347 26.0243 56.1594 25.6676C57.1205 25.5487 57.1205 24.0622 56.1594 24.1811H56.2795ZM31.2901 26.9757C32.0711 27.3324 31.9509 28.7595 31.7707 29.4135C31.5304 30.2459 30.9898 30.9595 30.329 31.5541C30.2089 30.0676 30.1488 26.5 31.2901 26.9757Z" fill="#D5D5D5"/>
<path d="M54.3566 21.5648C54.2365 21.0297 53.8761 20.9108 53.3955 20.9702C53.3955 20.9702 53.3354 20.9702 53.2153 20.9702C53.0952 20.9702 52.975 20.9702 52.9149 20.9702L37.3566 24.0026C36.9962 23.9432 36.816 23.8837 36.5157 24.5378C36.5157 24.6567 36.4556 24.7756 36.3955 24.8945C36.1552 25.4891 35.7948 26.4405 35.1941 27.9864C34.4733 29.8297 33.6923 31.9108 33.3319 32.981C33.3319 32.981 33.3319 33.0405 33.3319 33.0999C33.1517 33.754 33.5121 34.0513 33.7524 34.1108C33.8725 34.1108 33.9927 34.1702 34.0528 34.1702C34.4132 34.1702 34.5934 33.8729 34.7736 33.6351V33.5162C34.7736 33.4567 34.8337 33.3378 34.8337 33.2783L37.7771 25.5486L53.1552 22.5756C53.2754 22.5756 53.3955 22.5756 53.5157 22.5162C53.6358 22.5162 53.7559 22.5162 53.7559 22.5162C54.1764 22.3378 54.5369 22.1594 54.4167 21.5648H54.3566Z" fill="#D5D5D5"/>
<path d="M26.5438 23.2298C29.7876 22.5163 32.7912 20.8514 35.1339 18.5325C35.8548 19.4244 36.7558 20.1974 37.8371 20.7325C38.2576 20.9703 38.8583 20.8514 39.0986 20.4352C39.3389 20.019 39.2187 19.4244 38.7982 19.1865C38.4378 19.0082 38.0774 18.7703 37.777 18.5325C37.2965 18.1757 36.876 17.7595 36.5155 17.2838C36.5155 17.2838 36.4555 17.2244 36.3954 17.1649C36.3954 17.1649 36.4555 17.1055 36.5155 17.046C36.8159 16.6892 36.876 16.1541 36.5155 15.7974C36.1551 15.4406 35.5544 15.4406 35.2541 15.7974C32.9714 18.6514 29.7276 20.673 26.1233 21.446C24.982 21.6838 25.4625 23.4082 26.6039 23.1703L26.5438 23.2298Z" fill="#D5D5D5"/>
<path d="M38.4378 17.1054C43.6039 17.4027 48.7699 17.5811 53.936 17.5811C54.9572 17.5811 54.9572 15.9757 53.936 15.9757C48.7699 15.9757 43.6039 15.7973 38.4378 15.5C37.4166 15.4406 37.4166 17.046 38.4378 17.1054Z" fill="#D5D5D5"/>
</g>
</g>
<defs>
<filter id="filter0_d_2_474" x="0" y="-9.5" width="80" height="80" filterUnits="userSpaceOnUse" color-interpolation-filters="sRGB">
<feFlood flood-opacity="0" result="BackgroundImageFix"/>
<feColorMatrix in="SourceAlpha" type="matrix" values="0 0 0 0 0 0 0 0 0 0 0 0 0 0 0 0 0 0 127 0" result="hardAlpha"/>
<feOffset dy="4"/>
<feGaussianBlur stdDeviation="7.5"/>
<feComposite in2="hardAlpha" operator="out"/>
<feColorMatrix type="matrix" values="0 0 0 0 0.960784 0 0 0 0 0.960784 0 0 0 0 0.960784 0 0 0 1 0"/>
<feBlend mode="normal" in2="BackgroundImageFix" result="effect1_dropShadow_2_474"/>
<feBlend mode="normal" in="SourceGraphic" in2="effect1_dropShadow_2_474" result="shape"/>
</filter>
<clipPath id="clip0_2_474">
<rect width="34" height="22" fill="white" transform="translate(23 15.5)"/>
</clipPath>
</defs>
</svg>
