<svg width="32" height="32" viewBox="0 0 32 32" fill="none" xmlns="http://www.w3.org/2000/svg">
<g clip-path="url(#clip0_2_941)">
<g clip-path="url(#clip1_2_941)">
<path d="M32 4.86459C31.9445 4.50988 31.7503 4.15517 31.5284 3.97781C31.0845 3.65857 30.5574 3.80046 30.2245 4.40347C27.0896 9.68866 24.2876 15.4705 21.9295 21.536C21.8185 21.8198 21.7075 22.1036 21.5966 22.3519C21.4578 22.7066 21.2914 23.0967 21.1527 23.4515C20.3759 20.4719 19.5159 17.5278 18.5449 14.6546C19.072 14.3709 19.5436 14.0871 19.932 13.7678C21.763 12.3845 22.9559 10.2917 23.2056 8.09246C23.483 5.64496 22.6508 3.09104 21.0972 1.60125C19.3217 -0.101366 16.9636 -0.101366 14.7164 0.0759901C14.3558 0.0759901 14.0506 0.359759 13.9119 0.749941C13.7454 1.17559 13.7732 1.70766 13.9674 2.06237C14.1338 2.38161 14.439 2.59444 14.7719 2.55897H14.9106C16.4365 2.41708 18.1565 2.31067 19.5159 3.19745C20.7365 4.01328 21.4856 5.75137 21.3746 7.52493C21.2636 9.08566 20.3759 10.6464 18.961 11.675C18.5726 11.9588 18.1287 12.2426 17.5739 12.5264L16.27 13.1294L15.521 13.4486C15.1048 13.626 14.6609 13.8033 14.2448 13.9807C15.0216 12.2426 15.521 10.4336 15.7151 8.73094C16.0203 6.24797 15.3822 3.83593 14.0783 2.38161C12.6357 0.785412 10.4163 0.643528 8.1137 1.99143C7.64208 2.2752 7.17046 2.62991 6.67109 3.09104C6.22721 3.51669 6.0885 4.19064 6.33818 4.75818C6.47689 5.04195 6.72658 5.29025 7.004 5.36119C7.25368 5.43213 7.50337 5.36119 7.69756 5.18383C8.5021 4.43894 9.30663 3.94234 10.1112 3.69404C10.6938 3.51669 11.5538 3.3748 12.2196 3.72952C13.2461 4.29705 13.8287 5.9642 13.8287 7.34757C13.8287 8.23435 13.6345 9.12113 13.4403 9.97243C13.1906 10.9656 12.8299 11.9588 12.386 12.9875C12.1086 13.626 11.9422 13.9807 11.637 14.4773C10.0279 13.2358 7.69756 13.555 6.39367 13.8743C5.173 14.1935 4.61815 14.4063 3.03682 15.3995C2.17681 15.9316 1.03936 17.1021 0.401286 18.4855C-0.264535 19.9398 -0.0980795 21.4651 0.872908 22.3873C1.78841 23.2741 2.73166 23.2741 3.70264 23.2032C5.50591 23.0258 7.33691 22.21 9.14018 20.7557C9.86148 20.1881 10.555 19.4787 11.2209 18.7338C11.3041 19.124 11.3596 19.5142 11.4151 19.8689C11.526 20.8975 11.526 22.0681 11.3596 23.2386C11.0544 25.5088 10.3331 27.8499 9.16792 30.1555C8.97372 30.5102 8.97372 30.9359 9.11243 31.2906C9.27889 31.6808 9.6118 31.9645 10.0002 32C10.0002 32 10.0279 32 10.0557 32C10.3886 32 10.666 31.7872 10.8602 31.4325C12.1086 28.985 12.8854 26.502 13.2461 24.0545C13.468 22.4937 13.6899 19.6206 12.8577 17.0312C13.9119 16.641 14.9384 16.2154 15.9093 15.7897L16.3255 15.6123C16.4642 15.5414 16.6029 15.5059 16.7416 15.435C18.0455 19.3368 19.183 23.3805 20.1262 27.4242C20.2649 27.9563 20.6533 28.3465 21.0972 28.311C21.5411 28.311 21.9017 27.9563 21.985 27.4242C22.2346 26.1473 22.7063 24.9412 23.1779 23.7352C23.2611 23.4869 23.3721 23.2386 23.4553 22.9903C24.0102 21.536 24.6205 20.0462 25.2308 18.6274C26.4792 15.7188 27.8386 12.8811 29.2535 10.1853C30.058 8.66 30.918 7.09927 31.8335 5.60949C31.9723 5.36119 32.0277 5.07742 31.9723 4.75818L32 4.86459ZM10.1666 16.8538C9.91696 17.1731 9.72277 17.4568 9.52857 17.6342C8.86275 18.3081 7.83628 18.9466 6.56012 19.5496C4.61815 20.4719 2.78714 20.8621 2.14906 20.4719C2.01035 20.4009 1.98261 20.2945 1.98261 20.2591C1.92712 20.1172 1.98261 19.9043 2.03809 19.7979C2.12132 19.5496 2.31552 19.2304 2.59294 18.9112C3.20328 18.2017 4.20201 17.4214 5.58913 16.7829C6.97626 16.1444 8.28016 15.8252 9.16792 15.8252C10.0557 15.8252 9.86148 15.8961 10.0834 16.038C10.2221 16.1089 10.2776 16.2154 10.3054 16.3572C10.3331 16.4636 10.3054 16.641 10.1944 16.8538H10.1666Z" fill="url(#paint0_linear_2_941)"/>
</g>
</g>
<defs>
<linearGradient id="paint0_linear_2_941" x1="16" y1="32" x2="16" y2="-8.13069e-06" gradientUnits="userSpaceOnUse">
<stop stop-color="#ADE5F7"/>
<stop offset="0.269231" stop-color="#73CEF0"/>
<stop offset="0.927604" stop-color="#00A0E0"/>
</linearGradient>
<clipPath id="clip0_2_941">
<rect width="32" height="32" fill="white"/>
</clipPath>
<clipPath id="clip1_2_941">
<rect width="32" height="32" fill="white"/>
</clipPath>
</defs>
</svg>
