<svg width="120" height="120" viewBox="0 0 120 120" fill="none" xmlns="http://www.w3.org/2000/svg">
<g clip-path="url(#clip0_2_152)">
<rect width="120" height="120" rx="10" fill="#2EB2E6"/>
<g clip-path="url(#clip1_2_152)">
<path d="M129.878 23.8219C129.633 22.594 128.778 21.3662 127.801 20.7522C125.846 19.6471 123.524 20.1383 122.058 22.2257C108.251 40.521 95.9108 60.5354 85.5251 81.5321C85.0364 82.5144 84.5477 83.4967 84.0589 84.3562C83.448 85.5841 82.7149 86.9347 82.104 88.1626C78.6828 77.8485 74.8952 67.6571 70.6187 57.7113C72.9402 56.729 75.0173 55.7467 76.7279 54.6416C84.792 49.8529 90.0459 42.6084 91.1456 34.9956C92.3674 26.5232 88.7019 17.6825 81.8596 12.5255C74.0399 6.63165 63.6543 6.63165 53.7574 7.24559C52.169 7.24559 50.825 8.22789 50.214 9.57856C49.4809 11.052 49.6031 12.8938 50.4584 14.1217C51.1915 15.2268 52.5355 15.9635 54.0017 15.8407H54.6127C61.3328 15.3496 68.9082 14.9812 74.8952 18.0509C80.2712 20.875 83.5702 26.8916 83.0815 33.031C82.5927 38.4336 78.6829 43.8363 72.4515 47.3971C70.7409 48.3794 68.786 49.3617 66.3423 50.344L60.5997 52.4314L57.3007 53.5365C55.4679 54.1505 53.513 54.7644 51.6803 55.3783C55.1014 49.3617 57.3007 43.0996 58.156 37.2058C59.5 28.6106 56.6898 20.2611 50.9472 15.2268C44.5936 9.70134 34.8189 9.21019 24.6777 13.8761C22.6005 14.8584 20.5234 16.0863 18.3241 17.6825C16.3692 19.156 15.7582 21.489 16.8579 23.4536C17.4688 24.4359 18.5685 25.2954 19.7903 25.5409C20.89 25.7865 21.9896 25.5409 22.8449 24.927C26.3882 22.3485 29.9316 20.6294 33.4749 19.7699C36.0407 19.156 39.8284 18.6648 42.7608 19.8927C47.2816 21.8573 49.8475 27.6283 49.8475 32.4171C49.8475 35.4867 48.9922 38.5564 48.1369 41.5033C47.0373 44.9414 45.4489 48.3794 43.4939 51.9403C42.2721 54.1505 41.539 55.3783 40.195 57.0974C33.1083 52.7998 22.8449 53.9049 17.1023 55.01C11.7262 56.1151 9.28251 56.8518 2.31803 60.2898C-1.46966 62.1317 -6.47919 66.1836 -9.28942 70.9724C-12.2218 76.0067 -11.4887 81.2865 -7.2123 84.479C-3.18023 87.5487 0.974013 87.5487 5.25044 87.3031C13.1924 86.6892 21.2565 83.8651 29.1985 78.8308C32.3752 76.8662 35.4298 74.4104 38.3622 71.8319C38.7288 73.1825 38.9731 74.5332 39.2175 75.7611C39.7062 79.3219 39.7063 83.3739 38.9731 87.4259C37.6291 95.2843 34.4524 103.388 29.3206 111.369C28.4653 112.597 28.4653 114.071 29.0763 115.299C29.8094 116.649 31.2756 117.632 32.9861 117.754C32.9861 117.754 33.1083 117.754 33.2305 117.754C34.6967 117.754 35.9186 117.018 36.7738 115.79C42.2721 107.317 45.6933 98.7224 47.2816 90.25C48.2591 84.8474 49.2366 74.9016 45.5711 65.9381C50.214 64.5874 54.7348 63.114 59.0113 61.6405L60.844 61.0266C61.4549 60.781 62.0659 60.6582 62.6768 60.4126C68.4194 73.9193 73.4289 87.9171 77.5832 101.915C78.1941 103.757 79.9047 105.107 81.8596 104.985C83.8146 104.985 85.4029 103.757 85.7695 101.915C86.8691 97.4945 88.9463 93.3197 91.0234 89.1449C91.39 88.2854 91.8787 87.4259 92.2452 86.5664C94.6889 81.5321 97.377 76.375 100.065 71.4635C105.563 61.3949 111.55 51.5719 117.782 42.2401C121.325 36.9602 125.113 31.5575 129.145 26.4005C129.756 25.5409 130 24.5586 129.756 23.4536L129.878 23.8219ZM33.7192 65.3241C32.6196 66.4292 31.7643 67.4115 30.909 68.0255C27.9766 70.3584 23.4558 72.5686 17.8354 74.656C9.28251 77.8485 1.21838 79.1991 -1.59185 77.8485C-2.20276 77.6029 -2.32495 77.2345 -2.32495 77.1117C-2.56931 76.6206 -2.32495 75.8839 -2.08058 75.5155C-1.71403 74.656 -0.858743 73.5509 0.363094 72.4458C3.05114 69.9901 7.44975 67.2887 13.5589 65.0786C19.6681 62.8684 25.4108 61.7633 29.3206 61.7633C33.2305 61.7633 32.3752 62.0089 33.3527 62.5C33.9636 62.7456 34.208 63.114 34.3302 63.6051C34.4523 63.9735 34.3302 64.5874 33.8414 65.3241H33.7192Z" fill="white"/>
</g>
</g>
<defs>
<clipPath id="clip0_2_152">
<rect width="120" height="120" rx="10" fill="white"/>
</clipPath>
<clipPath id="clip1_2_152">
<rect width="141" height="111" fill="white" transform="translate(-11 7)"/>
</clipPath>
</defs>
</svg>
