<svg width="343" height="53" viewBox="0 0 343 53" fill="none" xmlns="http://www.w3.org/2000/svg">
<rect x="0.5" y="0.5" width="342" height="52" rx="26" fill="white"/>
<rect x="0.5" y="0.5" width="342" height="52" rx="26" stroke="#EEEEEE"/>
<rect width="24" height="24" transform="translate(16 14.5)" fill="white"/>
<path fill-rule="evenodd" clip-rule="evenodd" d="M39.04 26.7613C39.04 25.9459 38.9668 25.1618 38.8309 24.4091H28V28.8575H34.1891C33.9225 30.295 33.1123 31.5129 31.8943 32.3284V35.2138H35.6109C37.7855 33.2118 39.04 30.2636 39.04 26.7613Z" fill="#4285F4"/>
<path fill-rule="evenodd" clip-rule="evenodd" d="M27.9999 37.9998C31.1049 37.9998 33.7081 36.97 35.6108 35.2137L31.8942 32.3282C30.8645 33.0182 29.5472 33.4259 27.9999 33.4259C25.0047 33.4259 22.4695 31.403 21.5651 28.6848H17.7231V31.6644C19.6154 35.4228 23.5045 37.9998 27.9999 37.9998Z" fill="#34A853"/>
<path fill-rule="evenodd" clip-rule="evenodd" d="M21.5652 28.6851C21.3352 27.9951 21.2045 27.2581 21.2045 26.5001C21.2045 25.7422 21.3352 25.0051 21.5652 24.3151V21.3356H17.7232C16.9443 22.8881 16.5 24.6444 16.5 26.5001C16.5 28.3558 16.9443 30.1122 17.7232 31.6647L21.5652 28.6851Z" fill="#FBBC05"/>
<path fill-rule="evenodd" clip-rule="evenodd" d="M27.9999 19.5739C29.6883 19.5739 31.2042 20.1541 32.3961 21.2936L35.6945 17.9952C33.7029 16.1395 31.0997 15 27.9999 15C23.5045 15 19.6154 17.577 17.7231 21.3355L21.5651 24.315C22.4695 21.5968 25.0047 19.5739 27.9999 19.5739Z" fill="#EA4335"/>
<path d="M143.211 32.708C140.059 32.708 137.771 30.484 137.771 26.644C137.771 22.788 140.123 20.5 143.259 20.5C144.923 20.5 146.043 21.236 146.763 21.988L145.755 23.172C145.179 22.58 144.475 22.116 143.323 22.116C141.147 22.116 139.675 23.828 139.675 26.58C139.675 29.38 140.971 31.092 143.403 31.092C144.123 31.092 144.827 30.884 145.259 30.516V27.748H142.923V26.228H146.939V31.332C146.155 32.116 144.827 32.708 143.211 32.708ZM152.99 32.708C150.814 32.708 148.846 31.012 148.846 28.116C148.846 25.172 150.814 23.476 152.99 23.476C155.166 23.476 157.134 25.172 157.134 28.116C157.134 31.012 155.166 32.708 152.99 32.708ZM152.99 31.204C154.382 31.204 155.246 29.972 155.246 28.116C155.246 26.244 154.398 24.996 152.99 24.996C151.582 24.996 150.75 26.244 150.75 28.116C150.75 29.972 151.63 31.204 152.99 31.204ZM162.818 32.708C160.642 32.708 158.674 31.012 158.674 28.116C158.674 25.172 160.642 23.476 162.818 23.476C164.994 23.476 166.962 25.172 166.962 28.116C166.962 31.012 164.994 32.708 162.818 32.708ZM162.818 31.204C164.21 31.204 165.074 29.972 165.074 28.116C165.074 26.244 164.226 24.996 162.818 24.996C161.41 24.996 160.578 26.244 160.578 28.116C160.578 29.972 161.458 31.204 162.818 31.204ZM172.118 36.452C170.006 36.452 168.47 35.668 168.47 34.132C168.47 33.38 168.934 32.708 169.75 32.212V32.132C169.302 31.86 168.95 31.396 168.95 30.676C168.95 29.988 169.43 29.412 169.926 29.044V28.98C169.334 28.516 168.774 27.684 168.774 26.644C168.774 24.66 170.358 23.476 172.182 23.476C172.678 23.476 173.126 23.572 173.462 23.7H176.582V25.076H174.902C175.238 25.444 175.478 26.004 175.478 26.692C175.478 28.612 174.022 29.716 172.182 29.716C171.814 29.716 171.398 29.62 170.95 29.444C170.646 29.7 170.47 29.94 170.47 30.372C170.47 30.9 170.806 31.236 171.942 31.236H173.558C175.686 31.236 176.726 31.844 176.726 33.38C176.726 35.092 174.95 36.452 172.118 36.452ZM172.182 28.532C173.094 28.532 173.846 27.812 173.846 26.644C173.846 25.428 173.142 24.772 172.182 24.772C171.222 24.772 170.518 25.428 170.518 26.644C170.518 27.812 171.27 28.532 172.182 28.532ZM172.39 35.236C173.926 35.236 174.95 34.5 174.95 33.668C174.95 32.916 174.39 32.708 173.302 32.708H171.974C171.574 32.708 171.19 32.66 170.79 32.58C170.262 32.964 170.038 33.412 170.038 33.86C170.038 34.756 170.918 35.236 172.39 35.236ZM178.264 19.764H180.088V32.5H178.264V19.764ZM186.399 32.708C184.015 32.708 182.111 31.012 182.111 28.116C182.111 25.236 184.063 23.476 186.127 23.476C188.463 23.476 189.711 25.156 189.711 27.652C189.711 28.036 189.679 28.34 189.631 28.58H183.919C184.063 30.26 185.103 31.268 186.639 31.268C187.423 31.268 188.095 31.044 188.735 30.612L189.375 31.78C188.559 32.34 187.551 32.708 186.399 32.708ZM188.127 27.316C188.127 25.78 187.439 24.916 186.159 24.916C185.071 24.916 184.079 25.78 183.903 27.316H188.127ZM207.888 30.676V32.036H194.8V30.676H200.496V28.212H196.384V23.556H204.704V21.62H196.352V20.292H206.336V24.868H198V26.884H206.656V28.212H202.144V30.676H207.888ZM219.263 22.052H210.911V20.724H220.911V22.276C220.911 24.212 220.927 26.228 220.367 29.3L218.703 29.124C219.263 26.276 219.263 24.164 219.263 22.276V22.052ZM222.591 30.356V31.716H209.519V30.356H222.591ZM236.142 29.78H234.494V19.284H236.142V29.78ZM232.174 23.86C232.174 25.956 230.526 27.476 228.35 27.476C226.174 27.476 224.51 25.956 224.51 23.86C224.51 21.732 226.174 20.244 228.35 20.244C230.526 20.244 232.174 21.732 232.174 23.86ZM226.126 23.86C226.126 25.172 227.07 26.052 228.35 26.052C229.614 26.052 230.574 25.172 230.574 23.86C230.574 22.516 229.614 21.668 228.35 21.668C227.07 21.668 226.126 22.516 226.126 23.86ZM236.558 32.116V33.46H226.702V28.724H228.366V32.116H236.558Z" fill="black"/>
</svg>
