<svg width="20" height="20" viewBox="0 0 20 20" fill="none" xmlns="http://www.w3.org/2000/svg">
<path d="M0.931616 7.05603L0 6.43017L0.423683 6.24406C3.31098 4.9758 5.69075 2.77771 7.18384 0C8.58594 2.77147 10.9073 4.96974 13.751 6.21885L14.2321 6.43017L13.2472 7.09181C10.6916 8.80873 8.60693 11.1388 7.18384 13.869C5.6694 11.1344 3.52637 8.7992 0.931616 7.05603Z" fill="#00A0E0"/>
<path d="M7.52805 16.9883L7.11621 16.7116L7.30351 16.6293C8.57988 16.0687 9.6319 15.0969 10.2919 13.869C10.9118 15.0942 11.938 16.066 13.1951 16.6182L13.4078 16.7116L12.9724 17.0041C11.8426 17.7631 10.921 18.7931 10.2919 20C9.62246 18.7912 8.6751 17.7588 7.52805 16.9883Z" fill="#00A0E0"/>
<path d="M11.9496 11.2053L11.3857 10.8264L11.6422 10.7138C13.3898 9.94616 14.8302 8.61572 15.7339 6.93445C16.5826 8.61194 17.9876 9.94249 19.7089 10.6985L20 10.8264L19.4039 11.2269C17.857 12.2661 16.5953 13.6764 15.7339 15.329C14.8173 13.6738 13.5202 12.2604 11.9496 11.2053Z" fill="#00A0E0"/>
</svg>
