<svg width="86" height="75" viewBox="0 0 86 75" fill="none" xmlns="http://www.w3.org/2000/svg">
<g filter="url(#filter0_d_2_466)">
<path d="M15 20C15 8.95431 23.9543 0 35 0H51C62.0457 0 71 8.95431 71 20V36C71 47.0457 62.0457 56 51 56H35C23.9543 56 15 47.0457 15 36V20Z" fill="white"/>
<path d="M35 0.5H51C61.7696 0.5 70.5 9.23045 70.5 20V36C70.5 46.7696 61.7696 55.5 51 55.5H35C24.2304 55.5 15.5 46.7696 15.5 36V20C15.5 9.23045 24.2304 0.5 35 0.5Z" stroke="#E6FCFF"/>
<g clip-path="url(#clip0_2_466)">
<path d="M66.9903 22.5942C58.0493 23.4894 52.1181 30.7408 45.3016 35.754C42.0262 38.1712 37.4229 41.0359 33.0851 40.3197C30.872 39.9616 29.8097 38.2607 29.19 36.2912C31.4032 34.7693 32.9966 32.5312 33.2622 29.6665C33.4392 27.2494 31.6687 23.3104 28.6589 24.8322C27.5081 25.3694 26.9769 26.7122 26.7113 27.876C26.3572 29.756 26.2687 31.7255 26.5343 33.6055C26.5343 34.1426 26.6228 34.6798 26.7113 35.2169C24.4982 36.4702 21.7539 36.9178 19.2752 36.3807C17.8588 36.1121 17.3277 38.2607 18.6555 38.5292C21.3113 39.1559 24.4982 38.7083 27.154 37.455C27.6851 39.1559 28.6589 40.7673 30.2523 41.6625C32.8196 43.1844 36.0065 42.7368 38.6622 41.8416C43.7082 40.1407 47.7803 36.6493 51.764 33.2474C56.1017 29.577 60.8821 25.3694 66.8133 24.8322C68.2297 24.6532 68.2297 22.4151 66.8133 22.5942H66.9903ZM30.1638 26.8913C31.3146 27.4284 31.1376 29.577 30.872 30.5617C30.5179 31.815 29.7212 32.8893 28.7474 33.7845C28.5704 31.5465 28.4818 26.1751 30.1638 26.8913Z" fill="#00A0E0"/>
<path d="M48.0101 26.0777C52.6221 26.0777 56.3609 22.3485 56.3609 17.7482C56.3609 13.148 52.6221 9.4187 48.0101 9.4187C43.398 9.4187 39.6592 13.148 39.6592 17.7482C39.6592 22.3485 43.398 26.0777 48.0101 26.0777Z" stroke="#00A0E0" stroke-width="1.8" stroke-miterlimit="10"/>
</g>
</g>
<defs>
<filter id="filter0_d_2_466" x="0" y="-11" width="86" height="86" filterUnits="userSpaceOnUse" color-interpolation-filters="sRGB">
<feFlood flood-opacity="0" result="BackgroundImageFix"/>
<feColorMatrix in="SourceAlpha" type="matrix" values="0 0 0 0 0 0 0 0 0 0 0 0 0 0 0 0 0 0 127 0" result="hardAlpha"/>
<feOffset dy="4"/>
<feGaussianBlur stdDeviation="7.5"/>
<feComposite in2="hardAlpha" operator="out"/>
<feColorMatrix type="matrix" values="0 0 0 0 0.960784 0 0 0 0 0.960784 0 0 0 0 0.960784 0 0 0 1 0"/>
<feBlend mode="normal" in2="BackgroundImageFix" result="effect1_dropShadow_2_466"/>
<feBlend mode="normal" in="SourceGraphic" in2="effect1_dropShadow_2_466" result="shape"/>
</filter>
<clipPath id="clip0_2_466">
<rect width="50.1053" height="38.3158" fill="white" transform="translate(17.9473 4.42102)"/>
</clipPath>
</defs>
</svg>
