<svg width="86" height="86" viewBox="0 0 86 86" fill="none" xmlns="http://www.w3.org/2000/svg">
<g filter="url(#filter0_d_2_961)">
<path d="M15 31C15 19.9543 23.9543 11 35 11H51C62.0457 11 71 19.9543 71 31V47C71 58.0457 62.0457 67 51 67H35C23.9543 67 15 58.0457 15 47V31Z" fill="white"/>
<path d="M35 11.5H51C61.7696 11.5 70.5 20.2304 70.5 31V47C70.5 57.7696 61.7696 66.5 51 66.5H35C24.2304 66.5 15.5 57.7696 15.5 47V31C15.5 20.2304 24.2304 11.5 35 11.5Z" stroke="#E6FCFF"/>
<g clip-path="url(#clip0_2_961)">
<path d="M66.9903 33.5942C58.0493 34.4894 52.1181 41.7408 45.3017 46.754C42.0262 49.1712 37.4229 52.0359 33.0852 51.3197C30.872 50.9616 29.8097 49.2607 29.1901 47.2912C31.4032 45.7693 32.9967 43.5312 33.2622 40.6665C33.4393 38.2494 31.6688 34.3104 28.6589 35.8322C27.5081 36.3694 26.9769 37.7122 26.7114 38.876C26.3573 40.756 26.2687 42.7255 26.5343 44.6055C26.5343 45.1426 26.6228 45.6798 26.7114 46.2169C24.4982 47.4702 21.754 47.9178 19.2752 47.3807C17.8588 47.1121 17.3277 49.2607 18.6556 49.5292C21.3113 50.1559 24.4982 49.7083 27.154 48.455C27.6851 50.1559 28.6589 51.7673 30.2524 52.6625C32.8196 54.1844 36.0065 53.7368 38.6623 52.8416C43.7082 51.1407 47.7804 47.6493 51.764 44.2474C56.1017 40.577 60.8821 36.3694 66.8133 35.8322C68.2297 35.6532 68.2297 33.4151 66.8133 33.5942H66.9903ZM30.1638 37.8913C31.3147 38.4284 31.1376 40.577 30.872 41.5617C30.5179 42.815 29.7212 43.8893 28.7474 44.7845C28.5704 42.5465 28.4819 37.1751 30.1638 37.8913Z" fill="#00A0E0"/>
<path d="M48.0105 37.0777C52.6226 37.0777 56.3614 33.3485 56.3614 28.7482C56.3614 24.148 52.6226 20.4187 48.0105 20.4187C43.3985 20.4187 39.6597 24.148 39.6597 28.7482C39.6597 33.3485 43.3985 37.0777 48.0105 37.0777Z" stroke="#00A0E0" stroke-width="1.8" stroke-miterlimit="10"/>
</g>
</g>
<defs>
<filter id="filter0_d_2_961" x="0" y="0" width="86" height="86" filterUnits="userSpaceOnUse" color-interpolation-filters="sRGB">
<feFlood flood-opacity="0" result="BackgroundImageFix"/>
<feColorMatrix in="SourceAlpha" type="matrix" values="0 0 0 0 0 0 0 0 0 0 0 0 0 0 0 0 0 0 127 0" result="hardAlpha"/>
<feOffset dy="4"/>
<feGaussianBlur stdDeviation="7.5"/>
<feComposite in2="hardAlpha" operator="out"/>
<feColorMatrix type="matrix" values="0 0 0 0 0.960784 0 0 0 0 0.960784 0 0 0 0 0.960784 0 0 0 1 0"/>
<feBlend mode="normal" in2="BackgroundImageFix" result="effect1_dropShadow_2_961"/>
<feBlend mode="normal" in="SourceGraphic" in2="effect1_dropShadow_2_961" result="shape"/>
</filter>
<clipPath id="clip0_2_961">
<rect width="50.1053" height="38.3158" fill="white" transform="translate(17.9474 15.421)"/>
</clipPath>
</defs>
</svg>
