<svg width="175" height="135" viewBox="0 0 175 135" fill="none" xmlns="http://www.w3.org/2000/svg">
<g clip-path="url(#clip0_2_155)">
<path d="M174.848 20.4591C174.545 18.9657 173.484 17.4724 172.27 16.7257C169.844 15.3816 166.963 15.979 165.143 18.5177C148.007 40.7688 132.691 65.1106 119.801 90.6471C119.194 91.8418 118.588 93.0365 117.981 94.0819C117.223 95.5752 116.313 97.2179 115.555 98.7113C111.309 86.167 106.607 73.7721 101.3 61.6759C104.181 60.4812 106.759 59.2865 108.882 57.9425C118.891 52.1184 125.412 43.3075 126.776 34.0487C128.293 23.7445 123.744 12.9923 115.251 6.72014C105.546 -0.447998 92.656 -0.447997 80.3727 0.298684C78.4012 0.298684 76.7331 1.49337 75.9749 3.13607C75.065 4.92811 75.2167 7.16815 76.2782 8.66152C77.1881 10.0055 78.8562 10.9016 80.6759 10.7522H81.4342C89.7747 10.1549 99.1768 9.70687 106.607 13.4403C113.28 16.875 117.374 24.1925 116.768 31.6593C116.161 38.2301 111.309 44.8009 103.575 49.1317C101.451 50.3263 99.0252 51.521 95.9922 52.7157L88.8648 55.2544L84.7704 56.5985C82.4957 57.3451 80.0694 58.0918 77.7947 58.8385C82.0408 51.521 84.7704 43.9049 85.8319 36.7367C87.5 26.2832 84.0122 16.1283 76.8848 10.0055C68.9992 3.28541 56.8674 2.68806 44.2808 8.36284C41.7028 9.55753 39.1248 11.0509 36.3952 12.9923C33.9688 14.7843 33.2106 17.6217 34.5754 20.0111C35.3336 21.2058 36.6985 22.2511 38.2149 22.5498C39.5798 22.8485 40.9446 22.5498 42.0061 21.8031C46.4038 18.667 50.8016 16.5763 55.1993 15.531C58.3839 14.7843 63.085 14.187 66.7245 15.6803C72.3354 18.0697 75.52 25.0885 75.52 30.9126C75.52 34.646 74.4584 38.3794 73.3969 41.9635C72.0321 46.1449 70.0607 50.3263 67.6343 54.6571C66.1179 57.3451 65.208 58.8385 63.5399 60.9292C54.7444 55.7024 42.0061 57.0465 34.8787 58.3905C28.2063 59.7345 25.1733 60.6305 16.5295 64.812C11.8285 67.052 5.61095 71.9801 2.12308 77.8042C-1.51644 83.927 -0.606558 90.3485 4.70107 94.2312C9.7054 97.9646 14.8614 97.9646 20.169 97.6659C30.026 96.9193 40.0347 93.4845 49.8917 87.3617C53.8345 84.9724 57.6257 81.9856 61.2652 78.8496C61.7201 80.4923 62.0234 82.135 62.3267 83.6283C62.9333 87.9591 62.9333 92.8872 62.0234 97.8153C60.3553 107.373 56.4125 117.229 50.0434 126.936C48.9818 128.429 48.9818 130.221 49.7401 131.715C50.6499 133.357 52.4697 134.552 54.5928 134.701C54.5928 134.701 54.7444 134.701 54.896 134.701C56.7158 134.701 58.2323 133.805 59.2938 132.312C66.1179 122.008 70.364 111.554 72.3354 101.25C73.5486 94.6792 74.7617 82.583 70.2123 71.6814C75.9749 70.0387 81.5858 68.2467 86.8934 66.4547L89.1681 65.708C89.9264 65.4093 90.6846 65.26 91.4428 64.9613C98.5702 81.3883 104.788 98.4126 109.944 115.437C110.702 117.677 112.825 119.32 115.251 119.17C117.678 119.17 119.649 117.677 120.104 115.437C121.469 110.061 124.047 104.983 126.625 99.906C127.08 98.8606 127.686 97.8153 128.141 96.7699C131.174 90.6471 134.51 84.375 137.847 78.4016C144.671 66.156 152.101 54.2091 159.835 42.8595C164.233 36.4381 168.934 29.8673 173.938 23.5951C174.697 22.5498 175 21.3551 174.697 20.0111L174.848 20.4591ZM55.5026 70.9347C54.1378 72.2788 53.0763 73.4735 52.0148 74.2201C48.3752 77.0575 42.7643 79.7456 35.7886 82.2843C25.1733 86.167 15.1647 87.8097 11.6768 86.167C10.9186 85.8684 10.7669 85.4204 10.7669 85.271C10.4636 84.6737 10.7669 83.7777 11.0702 83.3297C11.5252 82.2843 12.5867 80.9403 14.1031 79.5963C17.4394 76.6095 22.8986 73.3241 30.481 70.6361C38.0633 67.948 45.1907 66.604 50.0434 66.604C54.896 66.604 53.8345 66.9027 55.0477 67.5C55.8059 67.7987 56.1092 68.2467 56.2609 68.844C56.4125 69.292 56.2609 70.0387 55.6543 70.9347H55.5026Z" fill="black"/>
</g>
<defs>
<clipPath id="clip0_2_155">
<rect width="175" height="135" fill="white"/>
</clipPath>
</defs>
</svg>
