<svg width="375" height="361" viewBox="0 0 375 361" fill="none" xmlns="http://www.w3.org/2000/svg">
<g clip-path="url(#clip0_2_165)">
<path d="M421.594 54.7091C420.783 50.7157 417.945 46.7223 414.7 44.7257C408.211 41.1316 400.506 42.729 395.639 49.5177C349.813 109.019 308.853 174.111 274.381 242.397C272.759 245.592 271.137 248.786 269.515 251.582C267.487 255.575 265.054 259.968 263.026 263.961C251.671 230.417 239.099 197.272 224.905 164.926C232.61 161.731 239.504 158.537 245.182 154.942C271.948 139.368 289.386 115.808 293.036 91.0487C297.092 63.4945 284.925 34.7423 262.215 17.9701C236.26 -1.198 201.789 -1.198 168.939 0.798678C163.667 0.798678 159.206 3.99337 157.178 8.38607C154.745 13.1781 155.151 19.1681 157.99 23.1615C160.423 26.7555 164.884 29.1516 169.75 28.7522H171.778C194.083 27.1549 219.227 25.9569 239.099 35.9403C256.943 45.125 267.893 64.6925 266.27 84.6593C264.648 102.23 251.671 119.801 230.988 131.382C225.31 134.576 218.821 137.771 210.711 140.966L191.65 147.754L180.7 151.348C174.617 153.345 168.128 155.342 162.045 157.339C173.4 137.771 180.7 117.405 183.539 98.2367C188 70.2832 178.672 43.1283 159.612 26.7555C138.523 8.7854 106.08 7.18806 72.4194 22.3628C65.5251 25.5575 58.6308 29.5509 51.331 34.7423C44.8423 39.5343 42.8145 47.1217 46.4644 53.5111C48.4922 56.7058 52.1421 59.5011 56.1975 60.2998C59.8475 61.0985 63.4974 60.2998 66.3362 58.3031C78.097 49.917 89.8579 44.3263 101.619 41.531C110.135 39.5343 122.707 37.937 132.44 41.9303C147.445 48.3197 155.962 67.0885 155.962 82.6626C155.962 92.646 153.123 102.629 150.284 112.213C146.634 123.395 141.362 134.576 134.873 146.157C130.818 153.345 128.385 157.339 123.924 162.929C100.402 148.952 66.3362 152.546 47.2755 156.14C29.4315 159.735 21.3206 162.131 -1.79553 173.312C-14.3675 179.302 -30.9948 192.48 -40.3224 208.054C-50.0555 224.427 -47.6222 241.598 -33.4281 251.981C-20.0451 261.965 -6.25653 261.965 7.93757 261.166C34.2981 259.169 61.0641 249.985 87.4246 233.612C97.9688 227.222 108.107 219.236 117.841 210.85C119.057 215.242 119.868 219.635 120.679 223.628C122.302 235.209 122.302 248.387 119.868 261.565C115.407 287.123 104.863 313.479 87.8301 339.436C84.9913 343.429 84.9913 348.221 87.019 352.215C89.4523 356.607 94.3189 359.802 99.9965 360.201C99.9965 360.201 100.402 360.201 100.808 360.201C105.674 360.201 109.73 357.805 112.568 353.812C130.818 326.258 142.173 298.304 147.445 270.75C150.69 253.179 153.934 220.833 141.768 191.681C157.178 187.289 172.184 182.497 186.378 177.705L192.461 175.708C194.489 174.909 196.516 174.51 198.544 173.711C217.605 217.638 234.232 263.163 248.021 308.687C250.048 314.677 255.726 319.07 262.215 318.67C268.704 318.67 273.976 314.677 275.192 308.687C278.842 294.311 285.737 280.733 292.631 267.156C293.847 264.361 295.47 261.565 296.686 258.77C304.797 242.397 313.719 225.625 322.641 209.652C340.891 176.906 360.763 144.959 381.445 114.61C393.206 97.4381 405.778 79.8673 419.161 63.0951C421.189 60.2998 422 57.1051 421.189 53.5111L421.594 54.7091ZM102.43 189.685C98.7799 193.279 95.941 196.473 93.1022 198.47C83.3691 206.058 68.3639 213.246 49.7088 220.034C21.3206 230.417 -5.44545 234.81 -14.773 230.417C-16.8007 229.618 -17.2063 228.42 -17.2063 228.021C-18.0174 226.424 -17.2063 224.028 -16.3952 222.83C-15.1785 220.034 -12.3397 216.44 -8.28427 212.846C0.637745 204.86 15.2374 196.074 35.5147 188.886C55.792 181.698 74.8527 178.104 87.8301 178.104C100.808 178.104 97.9688 178.903 101.213 180.5C103.241 181.299 104.052 182.497 104.458 184.094C104.863 185.292 104.458 187.289 102.835 189.685H102.43Z" fill="url(#paint0_linear_2_165)"/>
</g>
<defs>
<linearGradient id="paint0_linear_2_165" x1="187.703" y1="360.201" x2="187.703" y2="-0.0569153" gradientUnits="userSpaceOnUse">
<stop stop-color="#E6FCFF"/>
<stop offset="0.379694" stop-color="#73CEF0"/>
<stop offset="0.927604" stop-color="#00A0E0"/>
</linearGradient>
<clipPath id="clip0_2_165">
<rect width="468" height="361" fill="white" transform="translate(-46)"/>
</clipPath>
</defs>
</svg>
