<svg width="343" height="53" viewBox="0 0 343 53" fill="none" xmlns="http://www.w3.org/2000/svg">
<rect x="0.5" y="0.5" width="342" height="52" rx="26" fill="#00BF18"/>
<rect x="0.5" y="0.5" width="342" height="52" rx="26" stroke="#EEEEEE"/>
<g clip-path="url(#clip0_2_1058)">
<path d="M40 14.5V38.5H31.9711L24.0723 26.4293V38.5H16V14.5H24.0723L31.9711 27.0894V14.5H40Z" fill="white"/>
</g>
<path d="M154.723 19.268V33.732H153.139V19.268H154.723ZM150.083 19.572H151.619V33.044H150.083V25.348H147.011V24.004H150.083V19.572ZM144.627 28.756C145.363 28.7347 146.072 28.6973 146.755 28.644C147.448 28.5907 148.179 28.4893 148.947 28.34L149.155 29.716C148.237 29.8973 147.368 30.02 146.547 30.084C145.725 30.1373 144.867 30.164 143.971 30.164H142.995V20.74H144.627V28.756ZM168.977 19.268V33.764H167.313V19.268H168.977ZM161.281 20.34C161.825 20.34 162.321 20.4627 162.769 20.708C163.228 20.9427 163.623 21.284 163.953 21.732C164.284 22.1693 164.54 22.7027 164.721 23.332C164.913 23.9507 165.009 24.6493 165.009 25.428C165.009 26.2067 164.913 26.916 164.721 27.556C164.54 28.1853 164.284 28.7187 163.953 29.156C163.623 29.5933 163.228 29.9347 162.769 30.18C162.321 30.4147 161.825 30.532 161.281 30.532C160.748 30.532 160.252 30.4147 159.793 30.18C159.345 29.9347 158.956 29.5933 158.625 29.156C158.295 28.7187 158.033 28.1853 157.841 27.556C157.66 26.916 157.569 26.2067 157.569 25.428C157.569 24.6493 157.66 23.9507 157.841 23.332C158.033 22.7027 158.295 22.1693 158.625 21.732C158.956 21.284 159.345 20.9427 159.793 20.708C160.252 20.4627 160.748 20.34 161.281 20.34ZM161.281 21.828C160.641 21.828 160.124 22.148 159.729 22.788C159.345 23.4173 159.153 24.2973 159.153 25.428C159.153 26.5907 159.345 27.4867 159.729 28.116C160.124 28.7453 160.641 29.06 161.281 29.06C161.921 29.06 162.439 28.7453 162.833 28.116C163.228 27.4867 163.425 26.5907 163.425 25.428C163.425 24.2973 163.228 23.4173 162.833 22.788C162.439 22.148 161.921 21.828 161.281 21.828ZM183.808 19.268V33.764H182.144V25.844H179.12V30.228H172.352V20.404H173.984V24.052H177.504V20.42H179.12V24.516H182.144V19.252L183.808 19.268ZM177.504 25.348H173.984V28.884H177.504V25.348ZM203.193 30.676V32.036H190.105V30.676H195.801V28.212H191.689V23.556H200.009V21.62H191.657V20.292H201.641V24.868H193.305V26.884H201.961V28.212H197.449V30.676H203.193ZM214.568 22.052H206.216V20.724H216.216V22.276C216.216 22.756 216.21 23.252 216.2 23.764C216.2 24.2653 216.184 24.7987 216.152 25.364C216.12 25.9293 216.066 26.5373 215.992 27.188C215.917 27.828 215.81 28.532 215.672 29.3L214.008 29.124C214.146 28.4093 214.253 27.7427 214.328 27.124C214.402 26.4947 214.456 25.9027 214.488 25.348C214.53 24.7827 214.552 24.2493 214.552 23.748C214.562 23.236 214.568 22.7453 214.568 22.276V22.052ZM217.896 30.356V31.716H204.824V30.356H217.896ZM231.447 29.78H229.799V19.284H231.447V29.78ZM227.479 23.86C227.479 24.3827 227.383 24.868 227.191 25.316C226.999 25.7533 226.727 26.132 226.375 26.452C226.033 26.772 225.628 27.0227 225.159 27.204C224.7 27.3853 224.199 27.476 223.655 27.476C223.111 27.476 222.604 27.3853 222.135 27.204C221.665 27.0227 221.26 26.772 220.919 26.452C220.577 26.132 220.305 25.7533 220.103 25.316C219.911 24.868 219.815 24.3827 219.815 23.86C219.815 23.3267 219.911 22.8413 220.103 22.404C220.305 21.956 220.577 21.572 220.919 21.252C221.26 20.932 221.665 20.6867 222.135 20.516C222.604 20.3347 223.111 20.244 223.655 20.244C224.199 20.244 224.7 20.3347 225.159 20.516C225.628 20.6867 226.033 20.932 226.375 21.252C226.727 21.572 226.999 21.956 227.191 22.404C227.383 22.8413 227.479 23.3267 227.479 23.86ZM221.431 23.86C221.431 24.1907 221.484 24.4893 221.591 24.756C221.708 25.0227 221.863 25.252 222.055 25.444C222.257 25.636 222.492 25.7853 222.759 25.892C223.036 25.9987 223.335 26.052 223.655 26.052C223.975 26.052 224.268 25.9987 224.535 25.892C224.801 25.7853 225.036 25.636 225.239 25.444C225.441 25.252 225.596 25.0227 225.703 24.756C225.82 24.4893 225.879 24.1907 225.879 23.86C225.879 23.5187 225.82 23.2147 225.703 22.948C225.596 22.6813 225.441 22.452 225.239 22.26C225.036 22.068 224.801 21.924 224.535 21.828C224.268 21.7213 223.975 21.668 223.655 21.668C223.015 21.668 222.481 21.8653 222.055 22.26C221.639 22.6547 221.431 23.188 221.431 23.86ZM231.863 32.116V33.46H222.007V28.724H223.671V32.116H231.863Z" fill="#FAFAFA"/>
<defs>
<clipPath id="clip0_2_1058">
<rect width="24" height="24" fill="white" transform="translate(16 14.5)"/>
</clipPath>
</defs>
</svg>
